<svg width="1920" height="903" viewBox="0 0 1920 903" fill="none" xmlns="http://www.w3.org/2000/svg">
<rect width="1920" height="903" fill="white"/>
<path d="M67.2617 84.6201V86H61.707V84.6201H67.2617ZM61.9971 73.2031V86H60.3799V73.2031H61.9971ZM66.5146 78.7051V80.085H61.707V78.7051H66.5146ZM67.1738 73.2031V74.5918H61.707V73.2031H67.1738ZM70.6719 78.3799V86H69.125V76.4902H70.584L70.6719 78.3799ZM70.3555 80.8848L69.6348 80.8584C69.6289 80.208 69.6934 79.6074 69.8281 79.0566C69.9629 78.5 70.165 78.0166 70.4346 77.6064C70.71 77.1963 71.0527 76.8799 71.4629 76.6572C71.8789 76.4287 72.3623 76.3145 72.9131 76.3145C73.2764 76.3145 73.6133 76.3789 73.9238 76.5078C74.2402 76.6309 74.5156 76.8271 74.75 77.0967C74.9844 77.3662 75.166 77.7119 75.2949 78.1338C75.4297 78.5557 75.4971 79.0654 75.4971 79.6631V86H73.9414V79.7422C73.9414 79.2441 73.874 78.8457 73.7393 78.5469C73.6104 78.248 73.4258 78.0312 73.1855 77.8965C72.9453 77.7559 72.6582 77.6855 72.3242 77.6855C71.9434 77.6855 71.624 77.7705 71.3662 77.9404C71.1143 78.1104 70.9121 78.3447 70.7598 78.6436C70.6133 78.9424 70.5078 79.2852 70.4434 79.6719C70.3848 80.0527 70.3555 80.457 70.3555 80.8848ZM75.4795 79.9883L74.4424 80.3223C74.4365 79.8008 74.501 79.2998 74.6357 78.8193C74.7705 78.3389 74.9697 77.9111 75.2334 77.5361C75.5029 77.1611 75.8369 76.8652 76.2354 76.6484C76.6338 76.4258 77.0967 76.3145 77.624 76.3145C78.0576 76.3145 78.4414 76.3818 78.7754 76.5166C79.1094 76.6514 79.3906 76.8594 79.6191 77.1406C79.8535 77.416 80.0293 77.7705 80.1465 78.2041C80.2637 78.6377 80.3223 79.1533 80.3223 79.751V86H78.7666V79.7334C78.7666 79.2002 78.6992 78.7871 78.5645 78.4941C78.4355 78.1953 78.251 77.9873 78.0107 77.8701C77.7705 77.7471 77.4834 77.6855 77.1494 77.6855C76.8799 77.6855 76.6396 77.7471 76.4287 77.8701C76.2236 77.9932 76.0508 78.1631 75.9102 78.3799C75.7695 78.5908 75.6611 78.834 75.585 79.1094C75.5146 79.3848 75.4795 79.6777 75.4795 79.9883ZM87.3271 84.374V79.2148C87.3271 78.8398 87.2686 78.5381 87.1514 78.3096C87.04 78.0811 86.8701 77.9141 86.6416 77.8086C86.4189 77.7031 86.1377 77.6504 85.7979 77.6504C85.4697 77.6504 85.1855 77.7178 84.9453 77.8525C84.7109 77.9873 84.5293 78.166 84.4004 78.3887C84.2773 78.6113 84.2158 78.8574 84.2158 79.127H82.6602C82.6602 78.7871 82.7334 78.4502 82.8799 78.1162C83.0322 77.7822 83.249 77.4805 83.5303 77.2109C83.8115 76.9355 84.1484 76.7188 84.541 76.5605C84.9395 76.3965 85.3848 76.3145 85.877 76.3145C86.4629 76.3145 86.9814 76.4111 87.4326 76.6045C87.8838 76.792 88.2383 77.0996 88.4961 77.5273C88.7539 77.9551 88.8828 78.5234 88.8828 79.2324V83.9258C88.8828 84.2422 88.9062 84.5791 88.9531 84.9365C89.0059 85.2939 89.0791 85.6016 89.1729 85.8594V86H87.5645C87.4883 85.8125 87.4297 85.5635 87.3887 85.2529C87.3477 84.9365 87.3271 84.6436 87.3271 84.374ZM87.5732 80.2344L87.5908 81.377H86.5098C86.1406 81.377 85.8037 81.418 85.499 81.5C85.2002 81.582 84.9424 81.7021 84.7256 81.8604C84.5088 82.0127 84.3418 82.2031 84.2246 82.4316C84.1133 82.6602 84.0576 82.9209 84.0576 83.2139C84.0576 83.5947 84.1104 83.8994 84.2158 84.1279C84.3213 84.3506 84.4795 84.5117 84.6904 84.6113C84.9014 84.7109 85.168 84.7607 85.4902 84.7607C85.8828 84.7607 86.2285 84.6699 86.5273 84.4883C86.8262 84.3066 87.0576 84.0869 87.2217 83.8291C87.3916 83.5713 87.4707 83.3311 87.459 83.1084L87.8018 83.8379C87.7783 84.0664 87.7021 84.3154 87.5732 84.585C87.4502 84.8486 87.2773 85.1035 87.0547 85.3496C86.832 85.5898 86.5684 85.7891 86.2637 85.9473C85.9648 86.0996 85.6279 86.1758 85.2529 86.1758C84.7021 86.1758 84.2188 86.0703 83.8027 85.8594C83.3926 85.6484 83.0732 85.3379 82.8447 84.9277C82.6162 84.5176 82.502 84.0107 82.502 83.4072C82.502 82.9502 82.5811 82.5283 82.7393 82.1416C82.8975 81.7549 83.1318 81.4209 83.4424 81.1396C83.7529 80.8525 84.1426 80.6299 84.6113 80.4717C85.0859 80.3135 85.6338 80.2344 86.2549 80.2344H87.5732ZM92.9697 76.4902V86H91.4229V76.4902H92.9697ZM91.335 73.9678C91.335 73.7041 91.4082 73.4814 91.5547 73.2998C91.7012 73.1182 91.9209 73.0273 92.2139 73.0273C92.5068 73.0273 92.7266 73.1182 92.873 73.2998C93.0254 73.4814 93.1016 73.7041 93.1016 73.9678C93.1016 74.2197 93.0254 74.4365 92.873 74.6182C92.7266 74.7939 92.5068 74.8818 92.2139 74.8818C91.9209 74.8818 91.7012 74.7939 91.5547 74.6182C91.4082 74.4365 91.335 74.2197 91.335 73.9678ZM97.1006 72.5V86H95.5537V72.5H97.1006ZM99.6055 85.1387C99.6055 84.8633 99.6904 84.6318 99.8604 84.4443C100.036 84.251 100.288 84.1543 100.616 84.1543C100.944 84.1543 101.193 84.251 101.363 84.4443C101.539 84.6318 101.627 84.8633 101.627 85.1387C101.627 85.4082 101.539 85.6367 101.363 85.8242C101.193 86.0117 100.944 86.1055 100.616 86.1055C100.288 86.1055 100.036 86.0117 99.8604 85.8242C99.6904 85.6367 99.6055 85.4082 99.6055 85.1387ZM99.5967 77.3779C99.5967 77.1025 99.6816 76.8711 99.8516 76.6836C100.027 76.4902 100.279 76.3936 100.607 76.3936C100.936 76.3936 101.185 76.4902 101.354 76.6836C101.53 76.8711 101.618 77.1025 101.618 77.3779C101.618 77.6475 101.53 77.876 101.354 78.0635C101.185 78.251 100.936 78.3447 100.607 78.3447C100.279 78.3447 100.027 78.251 99.8516 78.0635C99.6816 77.876 99.5967 77.6475 99.5967 77.3779ZM109.563 76.4902V86H108.017V76.4902H109.563ZM107.929 73.9678C107.929 73.7041 108.002 73.4814 108.148 73.2998C108.295 73.1182 108.515 73.0273 108.808 73.0273C109.101 73.0273 109.32 73.1182 109.467 73.2998C109.619 73.4814 109.695 73.7041 109.695 73.9678C109.695 74.2197 109.619 74.4365 109.467 74.6182C109.32 74.7939 109.101 74.8818 108.808 74.8818C108.515 74.8818 108.295 74.7939 108.148 74.6182C108.002 74.4365 107.929 74.2197 107.929 73.9678ZM114.485 84.5322L116.524 76.4902H118.106L115.285 86H114.257L114.485 84.5322ZM112.842 76.4902L114.969 84.5762L115.136 86H114.116L111.26 76.4902H112.842ZM124.241 84.374V79.2148C124.241 78.8398 124.183 78.5381 124.065 78.3096C123.954 78.0811 123.784 77.9141 123.556 77.8086C123.333 77.7031 123.052 77.6504 122.712 77.6504C122.384 77.6504 122.1 77.7178 121.859 77.8525C121.625 77.9873 121.443 78.166 121.314 78.3887C121.191 78.6113 121.13 78.8574 121.13 79.127H119.574C119.574 78.7871 119.647 78.4502 119.794 78.1162C119.946 77.7822 120.163 77.4805 120.444 77.2109C120.726 76.9355 121.062 76.7188 121.455 76.5605C121.854 76.3965 122.299 76.3145 122.791 76.3145C123.377 76.3145 123.896 76.4111 124.347 76.6045C124.798 76.792 125.152 77.0996 125.41 77.5273C125.668 77.9551 125.797 78.5234 125.797 79.2324V83.9258C125.797 84.2422 125.82 84.5791 125.867 84.9365C125.92 85.2939 125.993 85.6016 126.087 85.8594V86H124.479C124.402 85.8125 124.344 85.5635 124.303 85.2529C124.262 84.9365 124.241 84.6436 124.241 84.374ZM124.487 80.2344L124.505 81.377H123.424C123.055 81.377 122.718 81.418 122.413 81.5C122.114 81.582 121.856 81.7021 121.64 81.8604C121.423 82.0127 121.256 82.2031 121.139 82.4316C121.027 82.6602 120.972 82.9209 120.972 83.2139C120.972 83.5947 121.024 83.8994 121.13 84.1279C121.235 84.3506 121.394 84.5117 121.604 84.6113C121.815 84.7109 122.082 84.7607 122.404 84.7607C122.797 84.7607 123.143 84.6699 123.441 84.4883C123.74 84.3066 123.972 84.0869 124.136 83.8291C124.306 83.5713 124.385 83.3311 124.373 83.1084L124.716 83.8379C124.692 84.0664 124.616 84.3154 124.487 84.585C124.364 84.8486 124.191 85.1035 123.969 85.3496C123.746 85.5898 123.482 85.7891 123.178 85.9473C122.879 86.0996 122.542 86.1758 122.167 86.1758C121.616 86.1758 121.133 86.0703 120.717 85.8594C120.307 85.6484 119.987 85.3379 119.759 84.9277C119.53 84.5176 119.416 84.0107 119.416 83.4072C119.416 82.9502 119.495 82.5283 119.653 82.1416C119.812 81.7549 120.046 81.4209 120.356 81.1396C120.667 80.8525 121.057 80.6299 121.525 80.4717C122 80.3135 122.548 80.2344 123.169 80.2344H124.487ZM129.77 78.5205V86H128.214V76.4902H129.682L129.77 78.5205ZM129.392 80.8848L128.759 80.8584C128.753 80.208 128.826 79.6074 128.979 79.0566C129.137 78.5 129.359 78.0166 129.646 77.6064C129.939 77.1963 130.288 76.8799 130.692 76.6572C131.097 76.4287 131.545 76.3145 132.037 76.3145C132.424 76.3145 132.775 76.3789 133.092 76.5078C133.408 76.6309 133.678 76.8301 133.9 77.1055C134.123 77.3809 134.293 77.7383 134.41 78.1777C134.533 78.6113 134.595 79.1416 134.595 79.7686V86H133.039V79.751C133.039 79.2529 132.983 78.8545 132.872 78.5557C132.767 78.251 132.603 78.0312 132.38 77.8965C132.163 77.7559 131.888 77.6855 131.554 77.6855C131.249 77.6855 130.965 77.7705 130.701 77.9404C130.438 78.1104 130.206 78.3447 130.007 78.6436C129.813 78.9424 129.661 79.2852 129.55 79.6719C129.444 80.0527 129.392 80.457 129.392 80.8848ZM136.607 81.7021V80.7969C136.607 80.0586 136.701 79.4111 136.889 78.8545C137.076 78.292 137.337 77.8232 137.671 77.4482C138.005 77.0732 138.395 76.792 138.84 76.6045C139.285 76.4111 139.763 76.3145 140.272 76.3145C140.794 76.3145 141.277 76.4111 141.723 76.6045C142.168 76.792 142.558 77.0732 142.892 77.4482C143.231 77.8232 143.495 78.292 143.683 78.8545C143.87 79.4111 143.964 80.0586 143.964 80.7969V81.7021C143.964 82.4404 143.87 83.0908 143.683 83.6533C143.495 84.21 143.234 84.6758 142.9 85.0508C142.566 85.4258 142.177 85.707 141.731 85.8945C141.286 86.082 140.806 86.1758 140.29 86.1758C139.774 86.1758 139.294 86.082 138.849 85.8945C138.403 85.707 138.011 85.4258 137.671 85.0508C137.337 84.6758 137.076 84.21 136.889 83.6533C136.701 83.0908 136.607 82.4404 136.607 81.7021ZM138.163 80.7969V81.7021C138.163 82.2236 138.216 82.6807 138.321 83.0732C138.427 83.4658 138.576 83.7939 138.77 84.0576C138.963 84.3213 139.188 84.5205 139.446 84.6553C139.704 84.7842 139.985 84.8486 140.29 84.8486C140.642 84.8486 140.949 84.7842 141.213 84.6553C141.482 84.5205 141.705 84.3213 141.881 84.0576C142.057 83.7939 142.188 83.4658 142.276 83.0732C142.364 82.6807 142.408 82.2236 142.408 81.7021V80.7969C142.408 80.2754 142.355 79.8213 142.25 79.4346C142.145 79.042 141.995 78.7139 141.802 78.4502C141.608 78.1807 141.38 77.9814 141.116 77.8525C140.858 77.7178 140.577 77.6504 140.272 77.6504C139.974 77.6504 139.695 77.7178 139.438 77.8525C139.18 77.9814 138.954 78.1807 138.761 78.4502C138.573 78.7139 138.427 79.042 138.321 79.4346C138.216 79.8213 138.163 80.2754 138.163 80.7969ZM148.288 84.5322L150.327 76.4902H151.909L149.088 86H148.06L148.288 84.5322ZM146.645 76.4902L148.771 84.5762L148.938 86H147.919L145.062 76.4902H146.645ZM152.674 85.1387C152.674 84.8633 152.759 84.6318 152.929 84.4443C153.104 84.251 153.356 84.1543 153.685 84.1543C154.013 84.1543 154.262 84.251 154.432 84.4443C154.607 84.6318 154.695 84.8633 154.695 85.1387C154.695 85.4082 154.607 85.6367 154.432 85.8242C154.262 86.0117 154.013 86.1055 153.685 86.1055C153.356 86.1055 153.104 86.0117 152.929 85.8242C152.759 85.6367 152.674 85.4082 152.674 85.1387ZM158.993 76.4902V86H157.446V76.4902H158.993ZM157.358 73.9678C157.358 73.7041 157.432 73.4814 157.578 73.2998C157.725 73.1182 157.944 73.0273 158.237 73.0273C158.53 73.0273 158.75 73.1182 158.896 73.2998C159.049 73.4814 159.125 73.7041 159.125 73.9678C159.125 74.2197 159.049 74.4365 158.896 74.6182C158.75 74.7939 158.53 74.8818 158.237 74.8818C157.944 74.8818 157.725 74.7939 157.578 74.6182C157.432 74.4365 157.358 74.2197 157.358 73.9678ZM163.915 84.5322L165.954 76.4902H167.536L164.715 86H163.687L163.915 84.5322ZM162.271 76.4902L164.398 84.5762L164.565 86H163.546L160.689 76.4902H162.271ZM173.671 84.374V79.2148C173.671 78.8398 173.612 78.5381 173.495 78.3096C173.384 78.0811 173.214 77.9141 172.985 77.8086C172.763 77.7031 172.481 77.6504 172.142 77.6504C171.813 77.6504 171.529 77.7178 171.289 77.8525C171.055 77.9873 170.873 78.166 170.744 78.3887C170.621 78.6113 170.56 78.8574 170.56 79.127H169.004C169.004 78.7871 169.077 78.4502 169.224 78.1162C169.376 77.7822 169.593 77.4805 169.874 77.2109C170.155 76.9355 170.492 76.7188 170.885 76.5605C171.283 76.3965 171.729 76.3145 172.221 76.3145C172.807 76.3145 173.325 76.4111 173.776 76.6045C174.228 76.792 174.582 77.0996 174.84 77.5273C175.098 77.9551 175.227 78.5234 175.227 79.2324V83.9258C175.227 84.2422 175.25 84.5791 175.297 84.9365C175.35 85.2939 175.423 85.6016 175.517 85.8594V86H173.908C173.832 85.8125 173.773 85.5635 173.732 85.2529C173.691 84.9365 173.671 84.6436 173.671 84.374ZM173.917 80.2344L173.935 81.377H172.854C172.484 81.377 172.147 81.418 171.843 81.5C171.544 81.582 171.286 81.7021 171.069 81.8604C170.853 82.0127 170.686 82.2031 170.568 82.4316C170.457 82.6602 170.401 82.9209 170.401 83.2139C170.401 83.5947 170.454 83.8994 170.56 84.1279C170.665 84.3506 170.823 84.5117 171.034 84.6113C171.245 84.7109 171.512 84.7607 171.834 84.7607C172.227 84.7607 172.572 84.6699 172.871 84.4883C173.17 84.3066 173.401 84.0869 173.565 83.8291C173.735 83.5713 173.814 83.3311 173.803 83.1084L174.146 83.8379C174.122 84.0664 174.046 84.3154 173.917 84.585C173.794 84.8486 173.621 85.1035 173.398 85.3496C173.176 85.5898 172.912 85.7891 172.607 85.9473C172.309 86.0996 171.972 86.1758 171.597 86.1758C171.046 86.1758 170.562 86.0703 170.146 85.8594C169.736 85.6484 169.417 85.3379 169.188 84.9277C168.96 84.5176 168.846 84.0107 168.846 83.4072C168.846 82.9502 168.925 82.5283 169.083 82.1416C169.241 81.7549 169.476 81.4209 169.786 81.1396C170.097 80.8525 170.486 80.6299 170.955 80.4717C171.43 80.3135 171.978 80.2344 172.599 80.2344H173.917ZM179.199 78.5205V86H177.644V76.4902H179.111L179.199 78.5205ZM178.821 80.8848L178.188 80.8584C178.183 80.208 178.256 79.6074 178.408 79.0566C178.566 78.5 178.789 78.0166 179.076 77.6064C179.369 77.1963 179.718 76.8799 180.122 76.6572C180.526 76.4287 180.975 76.3145 181.467 76.3145C181.854 76.3145 182.205 76.3789 182.521 76.5078C182.838 76.6309 183.107 76.8301 183.33 77.1055C183.553 77.3809 183.723 77.7383 183.84 78.1777C183.963 78.6113 184.024 79.1416 184.024 79.7686V86H182.469V79.751C182.469 79.2529 182.413 78.8545 182.302 78.5557C182.196 78.251 182.032 78.0312 181.81 77.8965C181.593 77.7559 181.317 77.6855 180.983 77.6855C180.679 77.6855 180.395 77.7705 180.131 77.9404C179.867 78.1104 179.636 78.3447 179.437 78.6436C179.243 78.9424 179.091 79.2852 178.979 79.6719C178.874 80.0527 178.821 80.457 178.821 80.8848ZM198.14 81.5791C198.122 82.1182 198.052 82.6602 197.929 83.2051C197.812 83.7441 197.633 84.2393 197.393 84.6904C197.152 85.1416 196.842 85.5049 196.461 85.7803C196.08 86.0498 195.614 86.1846 195.063 86.1846C194.712 86.1846 194.407 86.1143 194.149 85.9736C193.892 85.8271 193.684 85.6191 193.525 85.3496C193.367 85.0801 193.256 84.7549 193.191 84.374C193.133 83.9932 193.124 83.5684 193.165 83.0996L193.543 78.2305H194.765L194.378 83.0996C194.349 83.5273 194.354 83.876 194.396 84.1455C194.437 84.415 194.501 84.623 194.589 84.7695C194.677 84.9102 194.776 85.0068 194.888 85.0596C195.005 85.1123 195.125 85.1387 195.248 85.1387C195.529 85.1387 195.781 85.0479 196.004 84.8662C196.227 84.6787 196.414 84.4238 196.566 84.1016C196.725 83.7734 196.845 83.3955 196.927 82.9678C197.015 82.5342 197.067 82.0713 197.085 81.5791C197.114 80.7061 197.079 79.9033 196.979 79.1709C196.88 78.4385 196.713 77.7881 196.479 77.2197C196.244 76.6514 195.939 76.1709 195.564 75.7783C195.189 75.3857 194.741 75.0869 194.22 74.8818C193.704 74.6768 193.112 74.5742 192.444 74.5742C191.829 74.5742 191.267 74.6885 190.757 74.917C190.247 75.1396 189.79 75.4619 189.386 75.8838C188.981 76.3057 188.636 76.8125 188.349 77.4043C188.067 77.9961 187.845 78.6641 187.681 79.4082C187.522 80.1465 187.429 80.9434 187.399 81.7988C187.364 82.6777 187.402 83.4863 187.514 84.2246C187.625 84.957 187.804 85.6104 188.05 86.1846C188.302 86.7646 188.615 87.2539 188.99 87.6523C189.365 88.0566 189.802 88.3613 190.3 88.5664C190.804 88.7773 191.36 88.8828 191.97 88.8828C192.403 88.8828 192.843 88.8213 193.288 88.6982C193.733 88.5752 194.108 88.4082 194.413 88.1973L194.712 89.1992C194.36 89.4629 193.927 89.6592 193.411 89.7881C192.896 89.917 192.406 89.9814 191.943 89.9814C191.193 89.9814 190.508 89.8584 189.887 89.6123C189.271 89.3721 188.727 89.0176 188.252 88.5488C187.783 88.0859 187.391 87.5205 187.074 86.8525C186.758 86.1904 186.523 85.4346 186.371 84.585C186.225 83.7354 186.169 82.8066 186.204 81.7988C186.239 80.8379 186.359 79.9326 186.564 79.083C186.775 78.2334 187.06 77.4629 187.417 76.7715C187.78 76.0801 188.214 75.4854 188.718 74.9873C189.222 74.4834 189.787 74.0967 190.414 73.8271C191.047 73.5576 191.732 73.4229 192.471 73.4229C193.221 73.4229 193.9 73.5459 194.51 73.792C195.119 74.0381 195.658 74.3926 196.127 74.8555C196.596 75.3184 196.985 75.8838 197.296 76.5518C197.606 77.2197 197.832 77.9756 197.973 78.8193C198.119 79.6631 198.175 80.583 198.14 81.5791ZM190.713 82.3262C190.684 82.7363 190.684 83.1025 190.713 83.4248C190.748 83.7471 190.812 84.0195 190.906 84.2422C191 84.4648 191.123 84.6348 191.275 84.752C191.428 84.8633 191.604 84.9189 191.803 84.9189C191.932 84.9189 192.066 84.8779 192.207 84.7959C192.348 84.708 192.488 84.5732 192.629 84.3916C192.77 84.21 192.898 83.9727 193.016 83.6797C193.133 83.3867 193.229 83.0352 193.306 82.625L193.842 83.2578C193.73 83.7383 193.584 84.1602 193.402 84.5234C193.227 84.8867 193.027 85.1914 192.805 85.4375C192.588 85.6836 192.359 85.8711 192.119 86C191.879 86.123 191.639 86.1846 191.398 86.1846C191.029 86.1846 190.71 86.0938 190.44 85.9121C190.171 85.7246 189.948 85.4609 189.772 85.1211C189.603 84.7812 189.485 84.377 189.421 83.9082C189.356 83.4336 189.348 82.9062 189.395 82.3262C189.441 81.7109 189.532 81.1426 189.667 80.6211C189.808 80.0996 189.98 79.6338 190.186 79.2236C190.391 78.8135 190.622 78.4648 190.88 78.1777C191.138 77.8906 191.41 77.6738 191.697 77.5273C191.984 77.375 192.277 77.2988 192.576 77.2988C193.127 77.2988 193.558 77.3926 193.868 77.5801C194.179 77.7617 194.478 77.9785 194.765 78.2305L194.088 79.1006C193.941 78.9365 193.754 78.7842 193.525 78.6436C193.303 78.5029 193.036 78.4326 192.726 78.4326C192.468 78.4326 192.225 78.5146 191.996 78.6787C191.773 78.8428 191.574 79.0889 191.398 79.417C191.223 79.7451 191.076 80.1523 190.959 80.6387C190.842 81.1191 190.76 81.6816 190.713 82.3262ZM205.364 76.4902H206.762V86.0791C206.762 86.917 206.615 87.6084 206.322 88.1533C206.035 88.6982 205.634 89.0996 205.118 89.3574C204.603 89.6211 204.008 89.7529 203.334 89.7529C203.094 89.7529 202.792 89.709 202.429 89.6211C202.065 89.5332 201.702 89.3984 201.339 89.2168C200.976 89.041 200.677 88.8184 200.442 88.5488L201.084 87.4678C201.418 87.8076 201.772 88.0508 202.147 88.1973C202.522 88.3438 202.88 88.417 203.22 88.417C203.624 88.417 203.976 88.3438 204.274 88.1973C204.573 88.0508 204.805 87.8105 204.969 87.4766C205.133 87.1484 205.215 86.709 205.215 86.1582V78.582L205.364 76.4902ZM199.897 81.7021V80.8145C199.897 80.0293 199.971 79.3555 200.117 78.793C200.264 78.2246 200.475 77.7588 200.75 77.3955C201.031 77.0264 201.368 76.7539 201.761 76.5781C202.153 76.4023 202.593 76.3145 203.079 76.3145C203.571 76.3145 203.996 76.4141 204.354 76.6133C204.711 76.8125 205.007 77.1025 205.241 77.4834C205.481 77.8584 205.669 78.3154 205.804 78.8545C205.944 79.3877 206.041 79.9912 206.094 80.665V81.8516C206.041 82.5195 205.944 83.1201 205.804 83.6533C205.669 84.1865 205.479 84.6406 205.232 85.0156C204.992 85.3906 204.693 85.6777 204.336 85.877C203.979 86.0762 203.554 86.1758 203.062 86.1758C202.581 86.1758 202.147 86.085 201.761 85.9033C201.374 85.7158 201.04 85.4375 200.759 85.0684C200.483 84.6934 200.27 84.2275 200.117 83.6709C199.971 83.1084 199.897 82.4521 199.897 81.7021ZM201.453 80.8145V81.7021C201.453 82.2295 201.491 82.6895 201.567 83.082C201.644 83.4688 201.761 83.791 201.919 84.0488C202.083 84.3008 202.291 84.4883 202.543 84.6113C202.801 84.7344 203.108 84.7959 203.466 84.7959C203.899 84.7959 204.254 84.6904 204.529 84.4795C204.805 84.2686 205.024 83.9902 205.188 83.6445C205.358 83.293 205.493 82.915 205.593 82.5107V80.0146C205.534 79.7158 205.449 79.4287 205.338 79.1533C205.232 78.8721 205.095 78.623 204.925 78.4062C204.755 78.1836 204.55 78.0078 204.31 77.8789C204.075 77.75 203.8 77.6855 203.483 77.6855C203.126 77.6855 202.818 77.75 202.561 77.8789C202.303 78.0078 202.092 78.2012 201.928 78.459C201.764 78.7168 201.644 79.042 201.567 79.4346C201.491 79.8271 201.453 80.2871 201.453 80.8145ZM210.646 78.3799V86H209.1V76.4902H210.559L210.646 78.3799ZM210.33 80.8848L209.609 80.8584C209.604 80.208 209.668 79.6074 209.803 79.0566C209.938 78.5 210.14 78.0166 210.409 77.6064C210.685 77.1963 211.027 76.8799 211.438 76.6572C211.854 76.4287 212.337 76.3145 212.888 76.3145C213.251 76.3145 213.588 76.3789 213.898 76.5078C214.215 76.6309 214.49 76.8271 214.725 77.0967C214.959 77.3662 215.141 77.7119 215.27 78.1338C215.404 78.5557 215.472 79.0654 215.472 79.6631V86H213.916V79.7422C213.916 79.2441 213.849 78.8457 213.714 78.5469C213.585 78.248 213.4 78.0312 213.16 77.8965C212.92 77.7559 212.633 77.6855 212.299 77.6855C211.918 77.6855 211.599 77.7705 211.341 77.9404C211.089 78.1104 210.887 78.3447 210.734 78.6436C210.588 78.9424 210.482 79.2852 210.418 79.6719C210.359 80.0527 210.33 80.457 210.33 80.8848ZM215.454 79.9883L214.417 80.3223C214.411 79.8008 214.476 79.2998 214.61 78.8193C214.745 78.3389 214.944 77.9111 215.208 77.5361C215.478 77.1611 215.812 76.8652 216.21 76.6484C216.608 76.4258 217.071 76.3145 217.599 76.3145C218.032 76.3145 218.416 76.3818 218.75 76.5166C219.084 76.6514 219.365 76.8594 219.594 77.1406C219.828 77.416 220.004 77.7705 220.121 78.2041C220.238 78.6377 220.297 79.1533 220.297 79.751V86H218.741V79.7334C218.741 79.2002 218.674 78.7871 218.539 78.4941C218.41 78.1953 218.226 77.9873 217.985 77.8701C217.745 77.7471 217.458 77.6855 217.124 77.6855C216.854 77.6855 216.614 77.7471 216.403 77.8701C216.198 77.9932 216.025 78.1631 215.885 78.3799C215.744 78.5908 215.636 78.834 215.56 79.1094C215.489 79.3848 215.454 79.6777 215.454 79.9883ZM227.302 84.374V79.2148C227.302 78.8398 227.243 78.5381 227.126 78.3096C227.015 78.0811 226.845 77.9141 226.616 77.8086C226.394 77.7031 226.112 77.6504 225.772 77.6504C225.444 77.6504 225.16 77.7178 224.92 77.8525C224.686 77.9873 224.504 78.166 224.375 78.3887C224.252 78.6113 224.19 78.8574 224.19 79.127H222.635C222.635 78.7871 222.708 78.4502 222.854 78.1162C223.007 77.7822 223.224 77.4805 223.505 77.2109C223.786 76.9355 224.123 76.7188 224.516 76.5605C224.914 76.3965 225.359 76.3145 225.852 76.3145C226.438 76.3145 226.956 76.4111 227.407 76.6045C227.858 76.792 228.213 77.0996 228.471 77.5273C228.729 77.9551 228.857 78.5234 228.857 79.2324V83.9258C228.857 84.2422 228.881 84.5791 228.928 84.9365C228.98 85.2939 229.054 85.6016 229.147 85.8594V86H227.539C227.463 85.8125 227.404 85.5635 227.363 85.2529C227.322 84.9365 227.302 84.6436 227.302 84.374ZM227.548 80.2344L227.565 81.377H226.484C226.115 81.377 225.778 81.418 225.474 81.5C225.175 81.582 224.917 81.7021 224.7 81.8604C224.483 82.0127 224.316 82.2031 224.199 82.4316C224.088 82.6602 224.032 82.9209 224.032 83.2139C224.032 83.5947 224.085 83.8994 224.19 84.1279C224.296 84.3506 224.454 84.5117 224.665 84.6113C224.876 84.7109 225.143 84.7607 225.465 84.7607C225.857 84.7607 226.203 84.6699 226.502 84.4883C226.801 84.3066 227.032 84.0869 227.196 83.8291C227.366 83.5713 227.445 83.3311 227.434 83.1084L227.776 83.8379C227.753 84.0664 227.677 84.3154 227.548 84.585C227.425 84.8486 227.252 85.1035 227.029 85.3496C226.807 85.5898 226.543 85.7891 226.238 85.9473C225.939 86.0996 225.603 86.1758 225.228 86.1758C224.677 86.1758 224.193 86.0703 223.777 85.8594C223.367 85.6484 223.048 85.3379 222.819 84.9277C222.591 84.5176 222.477 84.0107 222.477 83.4072C222.477 82.9502 222.556 82.5283 222.714 82.1416C222.872 81.7549 223.106 81.4209 223.417 81.1396C223.728 80.8525 224.117 80.6299 224.586 80.4717C225.061 80.3135 225.608 80.2344 226.229 80.2344H227.548ZM232.944 76.4902V86H231.397V76.4902H232.944ZM231.31 73.9678C231.31 73.7041 231.383 73.4814 231.529 73.2998C231.676 73.1182 231.896 73.0273 232.188 73.0273C232.481 73.0273 232.701 73.1182 232.848 73.2998C233 73.4814 233.076 73.7041 233.076 73.9678C233.076 74.2197 233 74.4365 232.848 74.6182C232.701 74.7939 232.481 74.8818 232.188 74.8818C231.896 74.8818 231.676 74.7939 231.529 74.6182C231.383 74.4365 231.31 74.2197 231.31 73.9678ZM237.075 72.5V86H235.528V72.5H237.075ZM239.633 85.1387C239.633 84.8633 239.718 84.6318 239.888 84.4443C240.063 84.251 240.315 84.1543 240.644 84.1543C240.972 84.1543 241.221 84.251 241.391 84.4443C241.566 84.6318 241.654 84.8633 241.654 85.1387C241.654 85.4082 241.566 85.6367 241.391 85.8242C241.221 86.0117 240.972 86.1055 240.644 86.1055C240.315 86.1055 240.063 86.0117 239.888 85.8242C239.718 85.6367 239.633 85.4082 239.633 85.1387ZM247.578 84.8486C247.889 84.8486 248.17 84.7871 248.422 84.6641C248.68 84.5352 248.891 84.3359 249.055 84.0664C249.219 83.791 249.312 83.4336 249.336 82.9941H250.795C250.771 83.627 250.61 84.1836 250.312 84.6641C250.019 85.1387 249.632 85.5107 249.151 85.7803C248.677 86.0439 248.152 86.1758 247.578 86.1758C246.963 86.1758 246.427 86.0762 245.97 85.877C245.519 85.6777 245.144 85.3906 244.845 85.0156C244.552 84.6348 244.332 84.1748 244.186 83.6357C244.039 83.0908 243.966 82.4727 243.966 81.7812V80.709C243.966 80.0176 244.039 79.4023 244.186 78.8633C244.332 78.3184 244.552 77.8584 244.845 77.4834C245.144 77.1025 245.519 76.8125 245.97 76.6133C246.427 76.4141 246.963 76.3145 247.578 76.3145C248.223 76.3145 248.779 76.4521 249.248 76.7275C249.723 76.9971 250.092 77.3896 250.355 77.9053C250.625 78.415 250.771 79.0332 250.795 79.7598H249.336C249.312 79.291 249.228 78.9014 249.081 78.5908C248.935 78.2744 248.735 78.04 248.483 77.8877C248.231 77.7295 247.93 77.6504 247.578 77.6504C247.168 77.6504 246.828 77.7236 246.559 77.8701C246.295 78.0107 246.087 78.2158 245.935 78.4854C245.782 78.7549 245.674 79.0771 245.609 79.4521C245.551 79.8271 245.521 80.2461 245.521 80.709V81.7812C245.521 82.2441 245.551 82.666 245.609 83.0469C245.674 83.4219 245.779 83.7441 245.926 84.0137C246.078 84.2832 246.289 84.4912 246.559 84.6377C246.828 84.7783 247.168 84.8486 247.578 84.8486ZM252.271 81.7021V80.7969C252.271 80.0586 252.365 79.4111 252.553 78.8545C252.74 78.292 253.001 77.8232 253.335 77.4482C253.669 77.0732 254.059 76.792 254.504 76.6045C254.949 76.4111 255.427 76.3145 255.937 76.3145C256.458 76.3145 256.941 76.4111 257.387 76.6045C257.832 76.792 258.222 77.0732 258.556 77.4482C258.896 77.8232 259.159 78.292 259.347 78.8545C259.534 79.4111 259.628 80.0586 259.628 80.7969V81.7021C259.628 82.4404 259.534 83.0908 259.347 83.6533C259.159 84.21 258.898 84.6758 258.564 85.0508C258.23 85.4258 257.841 85.707 257.396 85.8945C256.95 86.082 256.47 86.1758 255.954 86.1758C255.438 86.1758 254.958 86.082 254.513 85.8945C254.067 85.707 253.675 85.4258 253.335 85.0508C253.001 84.6758 252.74 84.21 252.553 83.6533C252.365 83.0908 252.271 82.4404 252.271 81.7021ZM253.827 80.7969V81.7021C253.827 82.2236 253.88 82.6807 253.985 83.0732C254.091 83.4658 254.24 83.7939 254.434 84.0576C254.627 84.3213 254.853 84.5205 255.11 84.6553C255.368 84.7842 255.649 84.8486 255.954 84.8486C256.306 84.8486 256.613 84.7842 256.877 84.6553C257.146 84.5205 257.369 84.3213 257.545 84.0576C257.721 83.7939 257.853 83.4658 257.94 83.0732C258.028 82.6807 258.072 82.2236 258.072 81.7021V80.7969C258.072 80.2754 258.02 79.8213 257.914 79.4346C257.809 79.042 257.659 78.7139 257.466 78.4502C257.272 78.1807 257.044 77.9814 256.78 77.8525C256.522 77.7178 256.241 77.6504 255.937 77.6504C255.638 77.6504 255.359 77.7178 255.102 77.8525C254.844 77.9814 254.618 78.1807 254.425 78.4502C254.237 78.7139 254.091 79.042 253.985 79.4346C253.88 79.8213 253.827 80.2754 253.827 80.7969ZM263.188 78.3799V86H261.641V76.4902H263.1L263.188 78.3799ZM262.871 80.8848L262.15 80.8584C262.145 80.208 262.209 79.6074 262.344 79.0566C262.479 78.5 262.681 78.0166 262.95 77.6064C263.226 77.1963 263.568 76.8799 263.979 76.6572C264.395 76.4287 264.878 76.3145 265.429 76.3145C265.792 76.3145 266.129 76.3789 266.439 76.5078C266.756 76.6309 267.031 76.8271 267.266 77.0967C267.5 77.3662 267.682 77.7119 267.811 78.1338C267.945 78.5557 268.013 79.0654 268.013 79.6631V86H266.457V79.7422C266.457 79.2441 266.39 78.8457 266.255 78.5469C266.126 78.248 265.941 78.0312 265.701 77.8965C265.461 77.7559 265.174 77.6855 264.84 77.6855C264.459 77.6855 264.14 77.7705 263.882 77.9404C263.63 78.1104 263.428 78.3447 263.275 78.6436C263.129 78.9424 263.023 79.2852 262.959 79.6719C262.9 80.0527 262.871 80.457 262.871 80.8848ZM267.995 79.9883L266.958 80.3223C266.952 79.8008 267.017 79.2998 267.151 78.8193C267.286 78.3389 267.485 77.9111 267.749 77.5361C268.019 77.1611 268.353 76.8652 268.751 76.6484C269.149 76.4258 269.612 76.3145 270.14 76.3145C270.573 76.3145 270.957 76.3818 271.291 76.5166C271.625 76.6514 271.906 76.8594 272.135 77.1406C272.369 77.416 272.545 77.7705 272.662 78.2041C272.779 78.6377 272.838 79.1533 272.838 79.751V86H271.282V79.7334C271.282 79.2002 271.215 78.7871 271.08 78.4941C270.951 78.1953 270.767 77.9873 270.526 77.8701C270.286 77.7471 269.999 77.6855 269.665 77.6855C269.396 77.6855 269.155 77.7471 268.944 77.8701C268.739 77.9932 268.566 78.1631 268.426 78.3799C268.285 78.5908 268.177 78.834 268.101 79.1094C268.03 79.3848 267.995 79.6777 267.995 79.9883Z" fill="black" fill-opacity="0.7"/>
<path d="M62.0674 107.064L67.0508 97.2031H68.668V110H67.0508V100.13L62.0674 110H60.459V97.2031H62.0674V107.064ZM75.998 107.838L78.5381 100.49H80.0146L76.5342 110H75.4619L71.9902 100.49H73.4668L75.998 107.838ZM73.0186 100.49V110H71.4717V100.49H73.0186ZM78.9248 110V100.49H80.4805V110H78.9248ZM84.541 105.465H86.2109L83.8643 110H82.1943L84.541 105.465ZM85.7627 100.49H89.1729V110H87.626V101.809H85.7627C85.4053 101.809 85.1123 101.888 84.8838 102.046C84.6553 102.198 84.4883 102.397 84.3828 102.644C84.2773 102.89 84.2246 103.145 84.2246 103.408C84.2246 103.666 84.2715 103.915 84.3652 104.155C84.4648 104.39 84.6172 104.583 84.8223 104.735C85.0332 104.888 85.3027 104.964 85.6309 104.964H88.0127V106.3H85.6309C85.1621 106.3 84.7432 106.227 84.374 106.08C84.0107 105.934 83.7002 105.731 83.4424 105.474C83.1904 105.21 82.9971 104.902 82.8623 104.551C82.7334 104.193 82.6689 103.807 82.6689 103.391C82.6689 102.975 82.7363 102.591 82.8711 102.239C83.0117 101.888 83.2139 101.58 83.4775 101.316C83.7471 101.053 84.0723 100.851 84.4531 100.71C84.834 100.563 85.2705 100.49 85.7627 100.49ZM91.6953 109.139C91.6953 108.863 91.7803 108.632 91.9502 108.444C92.126 108.251 92.3779 108.154 92.7061 108.154C93.0342 108.154 93.2832 108.251 93.4531 108.444C93.6289 108.632 93.7168 108.863 93.7168 109.139C93.7168 109.408 93.6289 109.637 93.4531 109.824C93.2832 110.012 93.0342 110.105 92.7061 110.105C92.3779 110.105 92.126 110.012 91.9502 109.824C91.7803 109.637 91.6953 109.408 91.6953 109.139ZM91.6865 101.378C91.6865 101.103 91.7715 100.871 91.9414 100.684C92.1172 100.49 92.3691 100.394 92.6973 100.394C93.0254 100.394 93.2744 100.49 93.4443 100.684C93.6201 100.871 93.708 101.103 93.708 101.378C93.708 101.647 93.6201 101.876 93.4443 102.063C93.2744 102.251 93.0254 102.345 92.6973 102.345C92.3691 102.345 92.1172 102.251 91.9414 102.063C91.7715 101.876 91.6865 101.647 91.6865 101.378ZM101.882 97.2031V110H100.265V97.2031H101.882ZM106.944 108.532L108.983 100.49H110.565L107.744 110H106.716L106.944 108.532ZM105.301 100.49L107.428 108.576L107.595 110H106.575L103.719 100.49H105.301ZM116.7 108.374V103.215C116.7 102.84 116.642 102.538 116.524 102.31C116.413 102.081 116.243 101.914 116.015 101.809C115.792 101.703 115.511 101.65 115.171 101.65C114.843 101.65 114.559 101.718 114.318 101.853C114.084 101.987 113.902 102.166 113.773 102.389C113.65 102.611 113.589 102.857 113.589 103.127H112.033C112.033 102.787 112.106 102.45 112.253 102.116C112.405 101.782 112.622 101.48 112.903 101.211C113.185 100.936 113.521 100.719 113.914 100.561C114.312 100.396 114.758 100.314 115.25 100.314C115.836 100.314 116.354 100.411 116.806 100.604C117.257 100.792 117.611 101.1 117.869 101.527C118.127 101.955 118.256 102.523 118.256 103.232V107.926C118.256 108.242 118.279 108.579 118.326 108.937C118.379 109.294 118.452 109.602 118.546 109.859V110H116.938C116.861 109.812 116.803 109.563 116.762 109.253C116.721 108.937 116.7 108.644 116.7 108.374ZM116.946 104.234L116.964 105.377H115.883C115.514 105.377 115.177 105.418 114.872 105.5C114.573 105.582 114.315 105.702 114.099 105.86C113.882 106.013 113.715 106.203 113.598 106.432C113.486 106.66 113.431 106.921 113.431 107.214C113.431 107.595 113.483 107.899 113.589 108.128C113.694 108.351 113.853 108.512 114.063 108.611C114.274 108.711 114.541 108.761 114.863 108.761C115.256 108.761 115.602 108.67 115.9 108.488C116.199 108.307 116.431 108.087 116.595 107.829C116.765 107.571 116.844 107.331 116.832 107.108L117.175 107.838C117.151 108.066 117.075 108.315 116.946 108.585C116.823 108.849 116.65 109.104 116.428 109.35C116.205 109.59 115.941 109.789 115.637 109.947C115.338 110.1 115.001 110.176 114.626 110.176C114.075 110.176 113.592 110.07 113.176 109.859C112.766 109.648 112.446 109.338 112.218 108.928C111.989 108.518 111.875 108.011 111.875 107.407C111.875 106.95 111.954 106.528 112.112 106.142C112.271 105.755 112.505 105.421 112.815 105.14C113.126 104.853 113.516 104.63 113.984 104.472C114.459 104.313 115.007 104.234 115.628 104.234H116.946ZM122.229 102.521V110H120.673V100.49H122.141L122.229 102.521ZM121.851 104.885L121.218 104.858C121.212 104.208 121.285 103.607 121.438 103.057C121.596 102.5 121.818 102.017 122.105 101.606C122.398 101.196 122.747 100.88 123.151 100.657C123.556 100.429 124.004 100.314 124.496 100.314C124.883 100.314 125.234 100.379 125.551 100.508C125.867 100.631 126.137 100.83 126.359 101.105C126.582 101.381 126.752 101.738 126.869 102.178C126.992 102.611 127.054 103.142 127.054 103.769V110H125.498V103.751C125.498 103.253 125.442 102.854 125.331 102.556C125.226 102.251 125.062 102.031 124.839 101.896C124.622 101.756 124.347 101.686 124.013 101.686C123.708 101.686 123.424 101.771 123.16 101.94C122.896 102.11 122.665 102.345 122.466 102.644C122.272 102.942 122.12 103.285 122.009 103.672C121.903 104.053 121.851 104.457 121.851 104.885Z" fill="black" fill-opacity="0.7"/>
<path d="M68.8877 132.62V134H60.8633V132.62H68.8877ZM61.1094 132.62V137.146H59.501L59.4922 132.62H61.1094ZM70.2939 132.62L70.2764 137.138H68.6768V132.62H70.2939ZM67.376 121.203V122.592H62.7354V121.203H67.376ZM68.791 121.203V134H67.1738V121.203H68.791ZM62.1816 121.203H63.7988L63.5703 126.354C63.541 127.127 63.4824 127.842 63.3945 128.498C63.3066 129.148 63.1924 129.743 63.0518 130.282C62.917 130.821 62.7617 131.305 62.5859 131.732C62.4102 132.154 62.2197 132.521 62.0146 132.831C61.8096 133.136 61.5928 133.388 61.3643 133.587C61.1357 133.78 60.9014 133.918 60.6611 134H59.9844V132.62H60.4326C60.5615 132.456 60.7021 132.219 60.8545 131.908C61.0127 131.598 61.165 131.196 61.3115 130.704C61.4639 130.206 61.5957 129.6 61.707 128.885C61.8242 128.17 61.9033 127.326 61.9443 126.354L62.1816 121.203ZM75.4531 134.176C74.8848 134.176 74.3721 134.091 73.915 133.921C73.458 133.751 73.0684 133.493 72.7461 133.147C72.4238 132.796 72.1777 132.354 72.0078 131.82C71.8379 131.287 71.7529 130.657 71.7529 129.931V128.858C71.7529 128.021 71.8496 127.312 72.043 126.731C72.2422 126.151 72.5088 125.686 72.8428 125.334C73.1768 124.977 73.5547 124.719 73.9766 124.561C74.3984 124.396 74.832 124.314 75.2773 124.314C75.875 124.314 76.3848 124.411 76.8066 124.604C77.2285 124.798 77.5713 125.085 77.835 125.466C78.0986 125.847 78.292 126.315 78.415 126.872C78.5439 127.429 78.6084 128.07 78.6084 128.797V129.702H72.667V128.375H77.0527V128.155C77.0293 127.663 76.9619 127.229 76.8506 126.854C76.7451 126.479 76.5693 126.187 76.3232 125.976C76.0771 125.759 75.7285 125.65 75.2773 125.65C74.9902 125.65 74.7236 125.7 74.4775 125.8C74.2373 125.894 74.0293 126.061 73.8535 126.301C73.6836 126.535 73.5488 126.86 73.4492 127.276C73.3555 127.692 73.3086 128.22 73.3086 128.858V129.931C73.3086 130.44 73.3555 130.88 73.4492 131.249C73.5488 131.612 73.6924 131.914 73.8799 132.154C74.0732 132.389 74.3076 132.564 74.583 132.682C74.8643 132.793 75.1836 132.849 75.541 132.849C76.0625 132.849 76.4932 132.749 76.833 132.55C77.1729 132.345 77.4688 132.084 77.7207 131.768L78.5381 132.743C78.3682 132.983 78.1455 133.215 77.8701 133.438C77.6006 133.654 77.2666 133.833 76.8682 133.974C76.4756 134.108 76.0039 134.176 75.4531 134.176ZM82.0625 129.465H83.7324L81.3857 134H79.7158L82.0625 129.465ZM83.2842 124.49H86.6943V134H85.1475V125.809H83.2842C82.9268 125.809 82.6338 125.888 82.4053 126.046C82.1768 126.198 82.0098 126.397 81.9043 126.644C81.7988 126.89 81.7461 127.145 81.7461 127.408C81.7461 127.666 81.793 127.915 81.8867 128.155C81.9863 128.39 82.1387 128.583 82.3438 128.735C82.5547 128.888 82.8242 128.964 83.1523 128.964H85.5342V130.3H83.1523C82.6836 130.3 82.2646 130.227 81.8955 130.08C81.5322 129.934 81.2217 129.731 80.9639 129.474C80.7119 129.21 80.5186 128.902 80.3838 128.551C80.2549 128.193 80.1904 127.807 80.1904 127.391C80.1904 126.975 80.2578 126.591 80.3926 126.239C80.5332 125.888 80.7354 125.58 80.999 125.316C81.2686 125.053 81.5938 124.851 81.9746 124.71C82.3555 124.563 82.792 124.49 83.2842 124.49ZM92.5918 124.49V134H91.0361V124.49H92.5918ZM95.1846 124.49V125.809H88.4785V124.49H95.1846ZM99.5352 134.176C98.9668 134.176 98.4541 134.091 97.9971 133.921C97.54 133.751 97.1504 133.493 96.8281 133.147C96.5059 132.796 96.2598 132.354 96.0898 131.82C95.9199 131.287 95.835 130.657 95.835 129.931V128.858C95.835 128.021 95.9316 127.312 96.125 126.731C96.3242 126.151 96.5908 125.686 96.9248 125.334C97.2588 124.977 97.6367 124.719 98.0586 124.561C98.4805 124.396 98.9141 124.314 99.3594 124.314C99.957 124.314 100.467 124.411 100.889 124.604C101.311 124.798 101.653 125.085 101.917 125.466C102.181 125.847 102.374 126.315 102.497 126.872C102.626 127.429 102.69 128.07 102.69 128.797V129.702H96.749V128.375H101.135V128.155C101.111 127.663 101.044 127.229 100.933 126.854C100.827 126.479 100.651 126.187 100.405 125.976C100.159 125.759 99.8105 125.65 99.3594 125.65C99.0723 125.65 98.8057 125.7 98.5596 125.8C98.3193 125.894 98.1113 126.061 97.9355 126.301C97.7656 126.535 97.6309 126.86 97.5312 127.276C97.4375 127.692 97.3906 128.22 97.3906 128.858V129.931C97.3906 130.44 97.4375 130.88 97.5312 131.249C97.6309 131.612 97.7744 131.914 97.9619 132.154C98.1553 132.389 98.3896 132.564 98.665 132.682C98.9463 132.793 99.2656 132.849 99.623 132.849C100.145 132.849 100.575 132.749 100.915 132.55C101.255 132.345 101.551 132.084 101.803 131.768L102.62 132.743C102.45 132.983 102.228 133.215 101.952 133.438C101.683 133.654 101.349 133.833 100.95 133.974C100.558 134.108 100.086 134.176 99.5352 134.176ZM109.88 124.49V125.835H106.092V124.49H109.88ZM111.269 124.49V134H109.722V124.49H111.269ZM105.723 124.49H107.278L107.059 129.078C107.023 129.787 106.965 130.414 106.883 130.959C106.807 131.498 106.698 131.961 106.558 132.348C106.423 132.734 106.253 133.051 106.048 133.297C105.849 133.537 105.608 133.716 105.327 133.833C105.052 133.944 104.732 134 104.369 134H103.903V132.567L104.211 132.541C104.416 132.523 104.592 132.465 104.738 132.365C104.891 132.266 105.014 132.119 105.107 131.926C105.207 131.727 105.286 131.472 105.345 131.161C105.409 130.851 105.459 130.481 105.494 130.054C105.529 129.626 105.556 129.128 105.573 128.56L105.723 124.49ZM115.065 127.76H117.386C118.042 127.76 118.593 127.895 119.038 128.164C119.483 128.428 119.82 128.794 120.049 129.263C120.277 129.726 120.392 130.253 120.392 130.845C120.392 131.284 120.327 131.697 120.198 132.084C120.069 132.465 119.876 132.799 119.618 133.086C119.366 133.373 119.053 133.599 118.678 133.763C118.309 133.921 117.878 134 117.386 134H113.905V124.49H115.452V132.664H117.386C117.749 132.664 118.036 132.579 118.247 132.409C118.458 132.239 118.607 132.02 118.695 131.75C118.789 131.48 118.836 131.199 118.836 130.906C118.836 130.619 118.789 130.338 118.695 130.062C118.607 129.787 118.458 129.559 118.247 129.377C118.036 129.189 117.749 129.096 117.386 129.096H115.065V127.76ZM127.792 128.612V129.931H123.758V128.612H127.792ZM124.074 124.49V134H122.519V124.49H124.074ZM129.058 124.49V134H127.502V124.49H129.058ZM131.211 129.702V128.797C131.211 128.059 131.305 127.411 131.492 126.854C131.68 126.292 131.94 125.823 132.274 125.448C132.608 125.073 132.998 124.792 133.443 124.604C133.889 124.411 134.366 124.314 134.876 124.314C135.397 124.314 135.881 124.411 136.326 124.604C136.771 124.792 137.161 125.073 137.495 125.448C137.835 125.823 138.099 126.292 138.286 126.854C138.474 127.411 138.567 128.059 138.567 128.797V129.702C138.567 130.44 138.474 131.091 138.286 131.653C138.099 132.21 137.838 132.676 137.504 133.051C137.17 133.426 136.78 133.707 136.335 133.895C135.89 134.082 135.409 134.176 134.894 134.176C134.378 134.176 133.897 134.082 133.452 133.895C133.007 133.707 132.614 133.426 132.274 133.051C131.94 132.676 131.68 132.21 131.492 131.653C131.305 131.091 131.211 130.44 131.211 129.702ZM132.767 128.797V129.702C132.767 130.224 132.819 130.681 132.925 131.073C133.03 131.466 133.18 131.794 133.373 132.058C133.566 132.321 133.792 132.521 134.05 132.655C134.308 132.784 134.589 132.849 134.894 132.849C135.245 132.849 135.553 132.784 135.816 132.655C136.086 132.521 136.309 132.321 136.484 132.058C136.66 131.794 136.792 131.466 136.88 131.073C136.968 130.681 137.012 130.224 137.012 129.702V128.797C137.012 128.275 136.959 127.821 136.854 127.435C136.748 127.042 136.599 126.714 136.405 126.45C136.212 126.181 135.983 125.981 135.72 125.853C135.462 125.718 135.181 125.65 134.876 125.65C134.577 125.65 134.299 125.718 134.041 125.853C133.783 125.981 133.558 126.181 133.364 126.45C133.177 126.714 133.03 127.042 132.925 127.435C132.819 127.821 132.767 128.275 132.767 128.797ZM143.867 132.849C144.178 132.849 144.459 132.787 144.711 132.664C144.969 132.535 145.18 132.336 145.344 132.066C145.508 131.791 145.602 131.434 145.625 130.994H147.084C147.061 131.627 146.899 132.184 146.601 132.664C146.308 133.139 145.921 133.511 145.44 133.78C144.966 134.044 144.441 134.176 143.867 134.176C143.252 134.176 142.716 134.076 142.259 133.877C141.808 133.678 141.433 133.391 141.134 133.016C140.841 132.635 140.621 132.175 140.475 131.636C140.328 131.091 140.255 130.473 140.255 129.781V128.709C140.255 128.018 140.328 127.402 140.475 126.863C140.621 126.318 140.841 125.858 141.134 125.483C141.433 125.103 141.808 124.812 142.259 124.613C142.716 124.414 143.252 124.314 143.867 124.314C144.512 124.314 145.068 124.452 145.537 124.728C146.012 124.997 146.381 125.39 146.645 125.905C146.914 126.415 147.061 127.033 147.084 127.76H145.625C145.602 127.291 145.517 126.901 145.37 126.591C145.224 126.274 145.024 126.04 144.772 125.888C144.521 125.729 144.219 125.65 143.867 125.65C143.457 125.65 143.117 125.724 142.848 125.87C142.584 126.011 142.376 126.216 142.224 126.485C142.071 126.755 141.963 127.077 141.898 127.452C141.84 127.827 141.811 128.246 141.811 128.709V129.781C141.811 130.244 141.84 130.666 141.898 131.047C141.963 131.422 142.068 131.744 142.215 132.014C142.367 132.283 142.578 132.491 142.848 132.638C143.117 132.778 143.457 132.849 143.867 132.849ZM152.305 124.49V134H150.749V124.49H152.305ZM154.897 124.49V125.809H148.191V124.49H154.897ZM157.851 127.76H160.171C160.827 127.76 161.378 127.895 161.823 128.164C162.269 128.428 162.605 128.794 162.834 129.263C163.062 129.726 163.177 130.253 163.177 130.845C163.177 131.284 163.112 131.697 162.983 132.084C162.854 132.465 162.661 132.799 162.403 133.086C162.151 133.373 161.838 133.599 161.463 133.763C161.094 133.921 160.663 134 160.171 134H156.69V124.49H158.237V132.664H160.171C160.534 132.664 160.821 132.579 161.032 132.409C161.243 132.239 161.393 132.02 161.48 131.75C161.574 131.48 161.621 131.199 161.621 130.906C161.621 130.619 161.574 130.338 161.48 130.062C161.393 129.787 161.243 129.559 161.032 129.377C160.821 129.189 160.534 129.096 160.171 129.096H157.851V127.76ZM165.207 133.139C165.207 132.863 165.292 132.632 165.462 132.444C165.638 132.251 165.89 132.154 166.218 132.154C166.546 132.154 166.795 132.251 166.965 132.444C167.141 132.632 167.229 132.863 167.229 133.139C167.229 133.408 167.141 133.637 166.965 133.824C166.795 134.012 166.546 134.105 166.218 134.105C165.89 134.105 165.638 134.012 165.462 133.824C165.292 133.637 165.207 133.408 165.207 133.139ZM165.198 125.378C165.198 125.103 165.283 124.871 165.453 124.684C165.629 124.49 165.881 124.394 166.209 124.394C166.537 124.394 166.786 124.49 166.956 124.684C167.132 124.871 167.22 125.103 167.22 125.378C167.22 125.647 167.132 125.876 166.956 126.063C166.786 126.251 166.537 126.345 166.209 126.345C165.881 126.345 165.629 126.251 165.453 126.063C165.283 125.876 165.198 125.647 165.198 125.378ZM182.021 121.203V134H180.403V122.592H175.402V134H173.785V121.203H182.021ZM186.23 126.318V137.656H184.675V124.49H186.09L186.23 126.318ZM191.548 128.814V129.702C191.548 130.452 191.478 131.108 191.337 131.671C191.202 132.228 191 132.693 190.73 133.068C190.467 133.438 190.142 133.716 189.755 133.903C189.368 134.085 188.926 134.176 188.428 134.176C187.93 134.176 187.496 134.082 187.127 133.895C186.764 133.701 186.456 133.423 186.204 133.06C185.958 132.696 185.762 132.26 185.615 131.75C185.475 131.234 185.378 130.657 185.325 130.019V128.665C185.378 127.991 185.475 127.388 185.615 126.854C185.756 126.315 185.949 125.858 186.195 125.483C186.447 125.103 186.755 124.812 187.118 124.613C187.487 124.414 187.918 124.314 188.41 124.314C188.92 124.314 189.368 124.402 189.755 124.578C190.147 124.754 190.476 125.026 190.739 125.396C191.009 125.759 191.211 126.225 191.346 126.793C191.48 127.355 191.548 128.029 191.548 128.814ZM189.992 129.702V128.814C189.992 128.287 189.951 127.827 189.869 127.435C189.793 127.042 189.67 126.717 189.5 126.459C189.33 126.201 189.116 126.008 188.858 125.879C188.601 125.75 188.29 125.686 187.927 125.686C187.616 125.686 187.341 125.75 187.101 125.879C186.866 126.008 186.664 126.184 186.494 126.406C186.324 126.623 186.184 126.872 186.072 127.153C185.961 127.429 185.879 127.716 185.826 128.015V130.678C185.926 131.053 186.058 131.407 186.222 131.741C186.386 132.069 186.605 132.336 186.881 132.541C187.162 132.746 187.517 132.849 187.944 132.849C188.302 132.849 188.609 132.784 188.867 132.655C189.125 132.526 189.336 132.333 189.5 132.075C189.67 131.812 189.793 131.483 189.869 131.091C189.951 130.692 189.992 130.229 189.992 129.702ZM193.227 129.702V128.797C193.227 128.059 193.32 127.411 193.508 126.854C193.695 126.292 193.956 125.823 194.29 125.448C194.624 125.073 195.014 124.792 195.459 124.604C195.904 124.411 196.382 124.314 196.892 124.314C197.413 124.314 197.896 124.411 198.342 124.604C198.787 124.792 199.177 125.073 199.511 125.448C199.851 125.823 200.114 126.292 200.302 126.854C200.489 127.411 200.583 128.059 200.583 128.797V129.702C200.583 130.44 200.489 131.091 200.302 131.653C200.114 132.21 199.854 132.676 199.52 133.051C199.186 133.426 198.796 133.707 198.351 133.895C197.905 134.082 197.425 134.176 196.909 134.176C196.394 134.176 195.913 134.082 195.468 133.895C195.022 133.707 194.63 133.426 194.29 133.051C193.956 132.676 193.695 132.21 193.508 131.653C193.32 131.091 193.227 130.44 193.227 129.702ZM194.782 128.797V129.702C194.782 130.224 194.835 130.681 194.94 131.073C195.046 131.466 195.195 131.794 195.389 132.058C195.582 132.321 195.808 132.521 196.065 132.655C196.323 132.784 196.604 132.849 196.909 132.849C197.261 132.849 197.568 132.784 197.832 132.655C198.102 132.521 198.324 132.321 198.5 132.058C198.676 131.794 198.808 131.466 198.896 131.073C198.983 130.681 199.027 130.224 199.027 129.702V128.797C199.027 128.275 198.975 127.821 198.869 127.435C198.764 127.042 198.614 126.714 198.421 126.45C198.228 126.181 197.999 125.981 197.735 125.853C197.478 125.718 197.196 125.65 196.892 125.65C196.593 125.65 196.314 125.718 196.057 125.853C195.799 125.981 195.573 126.181 195.38 126.45C195.192 126.714 195.046 127.042 194.94 127.435C194.835 127.821 194.782 128.275 194.782 128.797ZM207.816 124.49V125.835H204.266V134H202.71V124.49H207.816ZM210.84 126.318V137.656H209.284V124.49H210.699L210.84 126.318ZM216.157 128.814V129.702C216.157 130.452 216.087 131.108 215.946 131.671C215.812 132.228 215.609 132.693 215.34 133.068C215.076 133.438 214.751 133.716 214.364 133.903C213.978 134.085 213.535 134.176 213.037 134.176C212.539 134.176 212.105 134.082 211.736 133.895C211.373 133.701 211.065 133.423 210.813 133.06C210.567 132.696 210.371 132.26 210.225 131.75C210.084 131.234 209.987 130.657 209.935 130.019V128.665C209.987 127.991 210.084 127.388 210.225 126.854C210.365 126.315 210.559 125.858 210.805 125.483C211.057 125.103 211.364 124.812 211.728 124.613C212.097 124.414 212.527 124.314 213.02 124.314C213.529 124.314 213.978 124.402 214.364 124.578C214.757 124.754 215.085 125.026 215.349 125.396C215.618 125.759 215.82 126.225 215.955 126.793C216.09 127.355 216.157 128.029 216.157 128.814ZM214.602 129.702V128.814C214.602 128.287 214.561 127.827 214.479 127.435C214.402 127.042 214.279 126.717 214.109 126.459C213.939 126.201 213.726 126.008 213.468 125.879C213.21 125.75 212.899 125.686 212.536 125.686C212.226 125.686 211.95 125.75 211.71 125.879C211.476 126.008 211.273 126.184 211.104 126.406C210.934 126.623 210.793 126.872 210.682 127.153C210.57 127.429 210.488 127.716 210.436 128.015V130.678C210.535 131.053 210.667 131.407 210.831 131.741C210.995 132.069 211.215 132.336 211.49 132.541C211.771 132.746 212.126 132.849 212.554 132.849C212.911 132.849 213.219 132.784 213.477 132.655C213.734 132.526 213.945 132.333 214.109 132.075C214.279 131.812 214.402 131.483 214.479 131.091C214.561 130.692 214.602 130.229 214.602 129.702ZM222.819 132.374V127.215C222.819 126.84 222.761 126.538 222.644 126.31C222.532 126.081 222.362 125.914 222.134 125.809C221.911 125.703 221.63 125.65 221.29 125.65C220.962 125.65 220.678 125.718 220.438 125.853C220.203 125.987 220.021 126.166 219.893 126.389C219.77 126.611 219.708 126.857 219.708 127.127H218.152C218.152 126.787 218.226 126.45 218.372 126.116C218.524 125.782 218.741 125.48 219.022 125.211C219.304 124.936 219.641 124.719 220.033 124.561C220.432 124.396 220.877 124.314 221.369 124.314C221.955 124.314 222.474 124.411 222.925 124.604C223.376 124.792 223.73 125.1 223.988 125.527C224.246 125.955 224.375 126.523 224.375 127.232V131.926C224.375 132.242 224.398 132.579 224.445 132.937C224.498 133.294 224.571 133.602 224.665 133.859V134H223.057C222.98 133.812 222.922 133.563 222.881 133.253C222.84 132.937 222.819 132.644 222.819 132.374ZM223.065 128.234L223.083 129.377H222.002C221.633 129.377 221.296 129.418 220.991 129.5C220.692 129.582 220.435 129.702 220.218 129.86C220.001 130.013 219.834 130.203 219.717 130.432C219.605 130.66 219.55 130.921 219.55 131.214C219.55 131.595 219.603 131.899 219.708 132.128C219.813 132.351 219.972 132.512 220.183 132.611C220.394 132.711 220.66 132.761 220.982 132.761C221.375 132.761 221.721 132.67 222.02 132.488C222.318 132.307 222.55 132.087 222.714 131.829C222.884 131.571 222.963 131.331 222.951 131.108L223.294 131.838C223.271 132.066 223.194 132.315 223.065 132.585C222.942 132.849 222.77 133.104 222.547 133.35C222.324 133.59 222.061 133.789 221.756 133.947C221.457 134.1 221.12 134.176 220.745 134.176C220.194 134.176 219.711 134.07 219.295 133.859C218.885 133.648 218.565 133.338 218.337 132.928C218.108 132.518 217.994 132.011 217.994 131.407C217.994 130.95 218.073 130.528 218.231 130.142C218.39 129.755 218.624 129.421 218.935 129.14C219.245 128.853 219.635 128.63 220.104 128.472C220.578 128.313 221.126 128.234 221.747 128.234H223.065ZM231.459 131.838L233.999 124.49H235.476L231.995 134H230.923L227.451 124.49H228.928L231.459 131.838ZM228.479 124.49V134H226.933V124.49H228.479ZM234.386 134V124.49H235.941V134H234.386ZM243.096 131.838L245.636 124.49H247.112L243.632 134H242.56L239.088 124.49H240.564L243.096 131.838ZM240.116 124.49V134H238.569V124.49H240.116ZM246.022 134V124.49H247.578V134H246.022ZM251.753 131.425L255.198 124.49H256.754V134H255.198V127.065L251.753 134H250.206V124.49H251.753V131.425ZM262.537 132.849C262.848 132.849 263.129 132.787 263.381 132.664C263.639 132.535 263.85 132.336 264.014 132.066C264.178 131.791 264.271 131.434 264.295 130.994H265.754C265.73 131.627 265.569 132.184 265.271 132.664C264.978 133.139 264.591 133.511 264.11 133.78C263.636 134.044 263.111 134.176 262.537 134.176C261.922 134.176 261.386 134.076 260.929 133.877C260.478 133.678 260.103 133.391 259.804 133.016C259.511 132.635 259.291 132.175 259.145 131.636C258.998 131.091 258.925 130.473 258.925 129.781V128.709C258.925 128.018 258.998 127.402 259.145 126.863C259.291 126.318 259.511 125.858 259.804 125.483C260.103 125.103 260.478 124.812 260.929 124.613C261.386 124.414 261.922 124.314 262.537 124.314C263.182 124.314 263.738 124.452 264.207 124.728C264.682 124.997 265.051 125.39 265.314 125.905C265.584 126.415 265.73 127.033 265.754 127.76H264.295C264.271 127.291 264.187 126.901 264.04 126.591C263.894 126.274 263.694 126.04 263.442 125.888C263.19 125.729 262.889 125.65 262.537 125.65C262.127 125.65 261.787 125.724 261.518 125.87C261.254 126.011 261.046 126.216 260.894 126.485C260.741 126.755 260.633 127.077 260.568 127.452C260.51 127.827 260.48 128.246 260.48 128.709V129.781C260.48 130.244 260.51 130.666 260.568 131.047C260.633 131.422 260.738 131.744 260.885 132.014C261.037 132.283 261.248 132.491 261.518 132.638C261.787 132.778 262.127 132.849 262.537 132.849ZM270.975 124.49V134H269.419V124.49H270.975ZM273.567 124.49V125.809H266.861V124.49H273.567Z" fill="black" fill-opacity="0.7"/>
</svg>
